<?xml version="1.0" encoding="UTF-8"?>
<!DOCTYPE svg PUBLIC "-//W3C//DTD SVG 1.1//EN" "http://www.w3.org/Graphics/SVG/1.1/DTD/svg11.dtd">
<svg width="1381pt" height="1070pt" viewBox="0 0 1381 1070" version="1.1" xmlns="http://www.w3.org/2000/svg">
<g id="#0093ddff">
<path fill="#0093dd" opacity="1.00" d=" M 268.54 0.00 L 452.70 0.00 C 458.67 1.27 463.72 6.05 465.05 12.04 C 466.56 17.59 464.60 23.18 463.41 28.58 C 452.39 76.05 441.24 123.49 430.30 170.98 C 429.06 171.67 427.82 172.35 426.55 172.98 L 425.79 173.31 C 425.63 173.38 425.31 173.52 425.16 173.59 C 422.96 174.55 420.78 175.52 418.59 176.49 C 418.23 176.66 417.51 177.01 417.14 177.19 L 416.69 177.39 C 416.61 177.43 416.45 177.50 416.37 177.53 C 414.10 178.48 411.83 179.43 409.60 180.47 C 409.54 180.50 409.41 180.56 409.35 180.59 L 407.65 181.38 C 407.58 181.42 407.42 181.50 407.34 181.53 L 405.57 182.37 C 405.21 182.57 404.49 182.96 404.13 183.16 L 403.67 183.37 C 403.60 183.41 403.44 183.48 403.37 183.51 C 400.41 184.75 397.53 186.12 394.63 187.46 C 394.55 187.50 394.39 187.57 394.31 187.61 L 393.87 187.83 C 393.50 188.01 392.77 188.37 392.41 188.55 L 390.60 189.39 C 390.52 189.42 390.37 189.50 390.29 189.53 L 388.58 190.34 C 388.50 190.38 388.33 190.46 388.24 190.50 L 386.59 191.29 C 386.51 191.33 386.36 191.40 386.28 191.44 L 384.60 192.23 C 384.52 192.27 384.35 192.35 384.26 192.39 L 383.06 192.94 C 382.54 193.21 381.49 193.76 380.96 194.03 C 379.91 194.48 378.87 194.94 377.84 195.42 C 377.69 195.50 377.38 195.64 377.23 195.72 C 376.03 196.29 374.83 196.87 373.64 197.46 C 373.57 197.49 373.45 197.55 373.38 197.59 C 371.49 198.61 369.57 199.56 367.63 200.47 C 367.55 200.51 367.40 200.59 367.33 200.62 L 366.89 200.85 C 366.54 201.04 365.85 201.43 365.51 201.63 C 363.07 202.81 360.66 204.04 358.24 205.23 C 356.95 205.35 355.52 205.71 354.93 207.00 C 350.68 208.96 346.55 211.17 342.42 213.37 C 342.08 213.55 341.41 213.93 341.08 214.12 L 340.67 214.37 C 340.58 214.43 340.39 214.54 340.30 214.59 L 339.88 214.84 C 339.51 215.01 338.78 215.34 338.41 215.50 L 336.66 216.42 C 336.59 216.46 336.43 216.54 336.35 216.59 L 334.74 217.45 C 334.67 217.49 334.54 217.56 334.47 217.60 C 330.92 219.51 327.37 221.40 323.82 223.31 C 323.66 223.39 323.35 223.56 323.19 223.64 C 318.45 226.13 313.82 228.80 309.14 231.38 C 302.29 234.98 295.62 238.92 289.03 242.94 C 295.85 240.17 302.34 236.61 308.84 233.16 C 315.95 229.49 323.21 226.12 330.40 222.60 C 330.46 222.56 330.60 222.50 330.67 222.46 L 332.37 221.63 C 332.46 221.59 332.64 221.51 332.73 221.46 L 334.42 220.65 C 334.49 220.61 334.65 220.54 334.73 220.50 L 336.39 219.71 C 336.46 219.68 336.60 219.61 336.67 219.58 C 340.17 217.94 343.70 216.35 347.20 214.71 C 347.36 214.64 347.67 214.49 347.82 214.42 C 351.34 212.80 354.86 211.17 358.39 209.56 C 358.46 209.53 358.59 209.47 358.66 209.44 L 360.35 208.68 C 360.43 208.64 360.59 208.57 360.67 208.54 L 361.92 207.99 C 362.46 207.73 363.53 207.22 364.06 206.97 C 365.15 206.53 366.22 206.08 367.30 205.62 C 367.40 205.57 367.60 205.48 367.70 205.44 C 368.78 204.96 369.87 204.48 370.96 204.02 C 371.48 203.76 372.52 203.25 373.04 203.00 C 376.58 201.65 379.99 199.99 383.49 198.53 C 383.83 198.35 384.53 197.98 384.88 197.80 L 385.33 197.62 C 385.40 197.58 385.56 197.52 385.64 197.49 C 386.29 197.24 387.59 196.75 388.24 196.50 C 388.33 196.47 388.50 196.40 388.59 196.36 C 389.70 195.90 390.82 195.43 391.94 194.96 C 392.48 194.72 393.54 194.23 394.07 193.99 C 395.73 193.38 397.36 192.71 399.00 192.04 C 399.53 191.79 400.60 191.28 401.14 191.03 L 402.36 190.61 C 402.43 190.58 402.57 190.53 402.65 190.51 L 403.89 190.05 C 404.43 189.77 405.49 189.22 406.02 188.94 L 407.44 188.55 C 407.80 188.38 408.52 188.03 408.89 187.86 L 409.33 187.63 C 409.42 187.58 409.59 187.49 409.68 187.44 L 410.04 187.25 C 410.81 186.98 412.35 186.44 413.12 186.17 L 414.38 185.71 C 414.45 185.68 414.61 185.62 414.69 185.59 L 415.99 185.13 C 416.50 184.85 417.53 184.31 418.05 184.03 L 418.94 184.07 C 419.45 183.80 420.48 183.26 420.99 182.99 C 421.96 182.67 422.93 182.34 423.91 182.02 C 424.45 181.76 425.52 181.25 426.05 180.99 L 427.65 180.43 C 427.74 181.29 427.68 182.14 427.48 182.98 C 418.90 219.60 410.40 256.25 401.86 292.88 C 401.48 296.95 400.32 300.88 399.50 304.88 C 398.27 310.80 399.78 317.53 404.38 321.67 C 407.99 325.10 413.12 326.24 417.97 326.12 C 487.98 326.11 557.99 326.13 628.01 326.11 C 632.16 326.12 636.52 325.88 640.42 327.60 C 645.47 329.67 649.14 334.52 649.98 339.90 C 651.09 346.05 648.54 352.01 647.42 357.97 C 624.44 456.64 601.47 555.31 578.48 653.98 C 576.29 664.53 567.87 673.43 557.52 676.34 C 552.78 677.66 547.81 677.22 542.95 677.29 C 452.48 677.32 362.02 677.23 271.56 677.34 C 271.30 674.35 271.45 671.35 271.42 668.36 C 296.28 662.80 321.23 654.42 341.56 638.60 C 357.92 626.10 370.17 608.19 375.28 588.20 C 392.02 516.17 408.84 444.15 425.58 372.12 C 427.20 365.27 424.77 357.25 418.60 353.46 C 414.00 350.40 408.28 350.64 402.99 350.69 C 352.68 350.69 302.36 350.71 252.05 350.69 C 250.42 350.80 248.68 350.37 247.14 350.97 C 218.52 375.64 191.32 402.03 166.76 430.77 C 142.32 459.05 120.47 489.71 103.05 522.82 C 82.65 561.72 68.42 604.77 67.88 649.01 C 67.08 691.24 80.52 733.54 105.68 767.48 C 128.28 798.38 159.11 822.45 192.50 840.75 C 228.62 860.29 267.74 873.94 307.70 883.18 C 307.61 883.95 307.44 885.47 307.36 886.24 C 303.67 901.39 300.26 916.60 296.69 931.78 C 270.46 928.24 244.49 922.78 218.95 915.87 C 183.45 906.01 148.70 892.78 116.80 874.21 C 84.15 855.26 54.34 830.33 33.23 798.78 C 9.12 763.35 -2.13 719.69 0.97 677.01 C 3.73 633.84 19.00 592.37 39.77 554.74 C 59.03 519.99 83.07 488.06 109.61 458.55 C 145.49 418.59 186.12 383.14 228.85 350.71 C 216.32 350.64 203.78 350.77 191.25 350.65 C 185.13 350.64 178.95 347.30 176.28 341.68 C 173.78 336.84 174.15 331.14 175.59 326.05 C 199.21 224.73 222.77 123.38 246.41 22.06 C 248.88 11.29 257.92 2.67 268.54 0.00 Z"/>
<path fill="#0093dd" opacity="1.00" d=" M 1171.91 697.88 C 1177.26 694.71 1182.20 690.76 1187.85 688.12 C 1170.32 701.42 1151.85 713.48 1133.40 725.47 C 1034.34 788.59 926.47 837.33 814.86 873.60 C 717.32 905.10 616.48 926.94 514.32 936.07 C 514.45 935.27 514.71 933.68 514.83 932.89 C 517.40 922.46 519.72 911.98 522.20 901.54 C 580.36 899.19 638.32 892.45 695.54 881.75 C 783.15 865.40 869.07 840.32 952.08 807.92 C 1028.46 777.95 1102.40 741.54 1171.91 697.88 Z"/>
</g>
<g id="#eb891bff">
<path fill="#eb891b" opacity="1.00" d=" M 785.57 0.00 L 1068.06 0.00 C 1068.03 2.86 1068.18 5.72 1067.89 8.57 C 1052.11 12.04 1036.56 16.91 1022.04 24.06 C 1007.64 30.98 994.41 40.67 984.26 53.08 C 1042.25 54.51 1100.35 60.87 1156.55 75.57 C 1198.24 86.60 1239.07 102.22 1275.62 125.35 C 1307.51 145.50 1336.08 171.95 1355.17 204.74 C 1369.87 229.54 1378.43 257.73 1381.00 286.40 L 1381.00 317.74 C 1378.07 357.09 1365.07 395.10 1346.90 429.93 C 1328.04 466.12 1303.75 499.24 1276.88 529.86 C 1226.12 587.23 1166.19 635.89 1102.60 678.34 C 1101.20 679.28 1099.83 680.32 1098.15 680.63 C 1098.53 679.94 1099.05 679.36 1099.69 678.90 C 1145.37 644.44 1188.35 606.14 1225.97 562.95 C 1252.50 532.29 1276.41 499.14 1294.91 462.99 C 1313.46 426.69 1326.55 386.97 1328.32 346.02 C 1329.49 319.20 1325.54 292.06 1315.89 266.97 C 1302.85 232.10 1279.21 201.84 1250.56 178.36 C 1219.90 153.05 1184.00 134.80 1146.82 121.16 C 1089.15 100.30 1028.11 90.18 967.08 86.03 C 954.61 139.52 942.17 193.02 929.70 246.52 C 925.14 266.62 919.99 286.61 916.26 306.87 C 915.44 313.39 918.36 320.49 924.26 323.74 C 928.68 326.41 934.02 326.14 939.00 326.12 C 1008.99 326.11 1078.98 326.11 1148.97 326.12 C 1153.98 325.99 1159.27 327.48 1162.76 331.25 C 1167.30 335.90 1168.19 343.08 1166.52 349.16 C 1143.08 449.83 1119.63 550.50 1096.19 651.17 C 1094.33 665.35 1081.61 677.67 1067.01 677.29 C 1009.35 677.29 951.70 677.31 894.05 677.28 C 888.96 677.37 883.64 675.61 880.26 671.67 C 876.19 667.14 875.35 660.51 876.80 654.77 C 898.74 560.56 920.70 466.36 942.63 372.15 C 944.25 365.28 941.81 357.23 935.61 353.44 C 930.71 350.19 924.62 350.70 919.04 350.70 C 849.36 350.70 779.68 350.70 710.00 350.69 C 705.01 350.83 699.76 349.43 696.23 345.74 C 691.65 341.22 690.58 334.15 692.16 328.10 C 710.19 250.66 728.25 173.23 746.26 95.78 C 637.24 111.45 530.22 140.39 427.65 180.43 L 426.05 180.99 C 425.52 181.25 424.45 181.76 423.91 182.02 C 422.93 182.34 421.96 182.67 420.99 182.99 L 420.11 182.80 C 419.81 183.12 419.23 183.75 418.94 184.07 L 418.05 184.03 C 417.53 184.31 416.50 184.85 415.99 185.13 L 414.69 185.59 C 414.61 185.62 414.45 185.68 414.38 185.71 L 413.12 186.17 C 412.35 186.44 410.81 186.98 410.04 187.25 L 409.68 187.44 C 409.59 187.49 409.42 187.58 409.33 187.63 L 408.89 187.86 C 408.52 188.03 407.80 188.38 407.44 188.55 L 406.02 188.94 C 405.49 189.22 404.43 189.77 403.89 190.05 L 402.65 190.51 C 402.57 190.53 402.43 190.58 402.36 190.61 L 401.14 191.03 C 400.60 191.28 399.53 191.79 399.00 192.04 C 397.36 192.71 395.73 193.38 394.07 193.99 L 393.20 193.77 C 392.89 194.06 392.26 194.66 391.94 194.96 C 390.82 195.43 389.70 195.90 388.59 196.36 C 388.50 196.40 388.33 196.47 388.24 196.50 C 387.59 196.75 386.29 197.24 385.64 197.49 C 385.56 197.52 385.40 197.58 385.33 197.62 L 384.88 197.80 C 384.53 197.98 383.83 198.35 383.49 198.53 C 379.99 199.99 376.58 201.65 373.04 203.00 L 372.17 202.80 C 371.86 203.10 371.26 203.71 370.96 204.02 C 369.87 204.48 368.78 204.96 367.70 205.44 C 367.60 205.48 367.40 205.57 367.30 205.62 C 366.22 206.08 365.15 206.53 364.06 206.97 L 363.19 206.77 C 362.87 207.07 362.24 207.68 361.92 207.99 L 360.67 208.54 C 360.59 208.57 360.43 208.64 360.35 208.68 L 358.66 209.44 C 358.59 209.47 358.46 209.53 358.39 209.56 C 354.86 211.17 351.34 212.80 347.82 214.42 C 347.67 214.49 347.36 214.64 347.20 214.71 C 343.70 216.35 340.17 217.94 336.67 219.58 C 336.60 219.61 336.46 219.68 336.39 219.71 L 334.73 220.50 C 334.65 220.54 334.49 220.61 334.42 220.65 L 332.73 221.46 C 332.64 221.51 332.46 221.59 332.37 221.63 L 330.67 222.46 C 330.60 222.50 330.46 222.56 330.40 222.60 C 323.21 226.12 315.95 229.49 308.84 233.16 L 307.28 233.23 C 307.74 232.77 308.67 231.85 309.14 231.38 C 313.82 228.80 318.45 226.13 323.19 223.64 C 323.35 223.56 323.66 223.39 323.82 223.31 C 327.37 221.40 330.92 219.51 334.47 217.60 C 334.54 217.56 334.67 217.49 334.74 217.45 L 336.35 216.59 C 336.43 216.54 336.59 216.46 336.66 216.42 L 338.41 215.50 C 338.78 215.34 339.51 215.01 339.88 214.84 L 340.30 214.59 C 340.39 214.54 340.58 214.43 340.67 214.37 L 341.08 214.12 C 341.41 213.93 342.08 213.55 342.42 213.37 C 346.55 211.17 350.68 208.96 354.93 207.00 C 356.43 208.08 357.93 206.73 358.24 205.23 C 360.66 204.04 363.07 202.81 365.51 201.63 C 365.85 201.43 366.54 201.04 366.89 200.85 L 367.33 200.62 C 367.40 200.59 367.55 200.51 367.63 200.47 C 369.57 199.56 371.49 198.61 373.38 197.59 C 373.45 197.55 373.57 197.49 373.64 197.46 C 374.83 196.87 376.03 196.29 377.23 195.72 C 377.38 195.64 377.69 195.50 377.84 195.42 C 378.87 194.94 379.91 194.48 380.96 194.03 L 381.84 194.20 C 382.15 193.88 382.76 193.26 383.06 192.94 L 384.26 192.39 C 384.35 192.35 384.52 192.27 384.60 192.23 L 386.28 191.44 C 386.36 191.40 386.51 191.33 386.59 191.29 L 388.24 190.50 C 388.33 190.46 388.50 190.38 388.58 190.34 L 390.29 189.53 C 390.37 189.50 390.52 189.42 390.60 189.39 L 392.41 188.55 C 392.77 188.37 393.50 188.01 393.87 187.83 L 394.31 187.61 C 394.39 187.57 394.55 187.50 394.63 187.46 C 397.53 186.12 400.41 184.75 403.37 183.51 C 403.44 183.48 403.60 183.41 403.67 183.37 L 404.13 183.16 C 404.49 182.96 405.21 182.57 405.57 182.37 L 407.34 181.53 C 407.42 181.50 407.58 181.42 407.65 181.38 L 409.35 180.59 C 409.41 180.56 409.54 180.50 409.60 180.47 C 411.83 179.43 414.10 178.48 416.37 177.53 C 416.45 177.50 416.61 177.43 416.69 177.39 L 417.14 177.19 C 417.51 177.01 418.23 176.66 418.59 176.49 C 420.78 175.52 422.96 174.55 425.16 173.59 C 425.31 173.52 425.63 173.38 425.79 173.31 L 426.55 172.98 C 530.65 127.43 639.84 93.36 751.63 72.80 C 755.57 55.88 759.49 38.96 763.46 22.05 C 765.93 11.29 774.96 2.68 785.57 0.00 Z"/>
</g>
<g id="#68b92eff">
<path fill="#68b92e" opacity="1.00" d=" M 425.16 173.59 C 425.31 173.52 425.63 173.38 425.79 173.31 C 425.63 173.38 425.31 173.52 425.16 173.59 Z"/>
<path fill="#68b92e" opacity="1.00" d=" M 417.14 177.19 C 417.51 177.01 418.23 176.66 418.59 176.49 C 418.23 176.66 417.51 177.01 417.14 177.19 Z"/>
<path fill="#68b92e" opacity="1.00" d=" M 416.37 177.53 C 416.45 177.50 416.61 177.43 416.69 177.39 C 416.61 177.43 416.45 177.50 416.37 177.53 Z"/>
<path fill="#68b92e" opacity="1.00" d=" M 409.35 180.59 C 409.41 180.56 409.54 180.50 409.60 180.47 C 409.54 180.50 409.41 180.56 409.35 180.59 Z"/>
<path fill="#68b92e" opacity="1.00" d=" M 407.34 181.53 C 407.42 181.50 407.58 181.42 407.65 181.38 C 407.58 181.42 407.42 181.50 407.34 181.53 Z"/>
<path fill="#68b92e" opacity="1.00" d=" M 423.91 182.02 C 424.45 181.76 425.52 181.25 426.05 180.99 C 425.52 181.25 424.45 181.76 423.91 182.02 Z"/>
<path fill="#68b92e" opacity="1.00" d=" M 404.13 183.16 C 404.49 182.96 405.21 182.57 405.57 182.37 C 405.21 182.57 404.49 182.96 404.13 183.16 Z"/>
<path fill="#68b92e" opacity="1.00" d=" M 403.37 183.51 C 403.44 183.48 403.60 183.41 403.67 183.37 C 403.60 183.41 403.44 183.48 403.37 183.51 Z"/>
<path fill="#68b92e" opacity="1.00" d=" M 418.94 184.07 C 419.23 183.75 419.81 183.12 420.11 182.80 L 420.99 182.99 C 420.48 183.26 419.45 183.80 418.94 184.07 Z"/>
<path fill="#68b92e" opacity="1.00" d=" M 415.99 185.13 C 416.50 184.85 417.53 184.31 418.05 184.03 C 417.53 184.31 416.50 184.85 415.99 185.13 Z"/>
<path fill="#68b92e" opacity="1.00" d=" M 414.38 185.71 C 414.45 185.68 414.61 185.62 414.69 185.59 C 414.61 185.62 414.45 185.68 414.38 185.71 Z"/>
<path fill="#68b92e" opacity="1.00" d=" M 410.04 187.25 C 410.81 186.98 412.35 186.44 413.12 186.17 C 412.35 186.44 410.81 186.98 410.04 187.25 Z"/>
<path fill="#68b92e" opacity="1.00" d=" M 394.31 187.61 C 394.39 187.57 394.55 187.50 394.63 187.46 C 394.55 187.50 394.39 187.57 394.31 187.61 Z"/>
<path fill="#68b92e" opacity="1.00" d=" M 409.33 187.63 C 409.42 187.58 409.59 187.49 409.68 187.44 C 409.59 187.49 409.42 187.58 409.33 187.63 Z"/>
<path fill="#68b92e" opacity="1.00" d=" M 392.41 188.55 C 392.77 188.37 393.50 188.01 393.87 187.83 C 393.50 188.01 392.77 188.37 392.41 188.55 Z"/>
<path fill="#68b92e" opacity="1.00" d=" M 407.44 188.55 C 407.80 188.38 408.52 188.03 408.89 187.86 C 408.52 188.03 407.80 188.38 407.44 188.55 Z"/>
<path fill="#68b92e" opacity="1.00" d=" M 390.29 189.53 C 390.37 189.50 390.52 189.42 390.60 189.39 C 390.52 189.42 390.37 189.50 390.29 189.53 Z"/>
<path fill="#68b92e" opacity="1.00" d=" M 403.89 190.05 C 404.43 189.77 405.49 189.22 406.02 188.94 C 405.49 189.22 404.43 189.77 403.89 190.05 Z"/>
<path fill="#68b92e" opacity="1.00" d=" M 388.24 190.50 C 388.33 190.46 388.50 190.38 388.58 190.34 C 388.50 190.38 388.33 190.46 388.24 190.50 Z"/>
<path fill="#68b92e" opacity="1.00" d=" M 402.36 190.61 C 402.43 190.58 402.57 190.53 402.65 190.51 C 402.57 190.53 402.43 190.58 402.36 190.61 Z"/>
<path fill="#68b92e" opacity="1.00" d=" M 386.28 191.44 C 386.36 191.40 386.51 191.33 386.59 191.29 C 386.51 191.33 386.36 191.40 386.28 191.44 Z"/>
<path fill="#68b92e" opacity="1.00" d=" M 399.00 192.04 C 399.53 191.79 400.60 191.28 401.14 191.03 C 400.60 191.28 399.53 191.79 399.00 192.04 Z"/>
<path fill="#68b92e" opacity="1.00" d=" M 384.26 192.39 C 384.35 192.35 384.52 192.27 384.60 192.23 C 384.52 192.27 384.35 192.35 384.26 192.39 Z"/>
<path fill="#68b92e" opacity="1.00" d=" M 380.96 194.03 C 381.49 193.76 382.54 193.21 383.06 192.94 C 382.76 193.26 382.15 193.88 381.84 194.20 L 380.96 194.03 Z"/>
<path fill="#68b92e" opacity="1.00" d=" M 391.94 194.96 C 392.26 194.66 392.89 194.06 393.20 193.77 L 394.07 193.99 C 393.54 194.23 392.48 194.72 391.94 194.96 Z"/>
<path fill="#68b92e" opacity="1.00" d=" M 377.23 195.72 C 377.38 195.64 377.69 195.50 377.84 195.42 C 377.69 195.50 377.38 195.64 377.23 195.72 Z"/>
<path fill="#68b92e" opacity="1.00" d=" M 388.24 196.50 C 388.33 196.47 388.50 196.40 388.59 196.36 C 388.50 196.40 388.33 196.47 388.24 196.50 Z"/>
<path fill="#68b92e" opacity="1.00" d=" M 373.38 197.59 C 373.45 197.55 373.57 197.49 373.64 197.46 C 373.57 197.49 373.45 197.55 373.38 197.59 Z"/>
<path fill="#68b92e" opacity="1.00" d=" M 385.33 197.62 C 385.40 197.58 385.56 197.52 385.64 197.49 C 385.56 197.52 385.40 197.58 385.33 197.62 Z"/>
<path fill="#68b92e" opacity="1.00" d=" M 383.49 198.53 C 383.83 198.35 384.53 197.98 384.88 197.80 C 384.53 197.98 383.83 198.35 383.49 198.53 Z"/>
<path fill="#68b92e" opacity="1.00" d=" M 367.33 200.62 C 367.40 200.59 367.55 200.51 367.63 200.47 C 367.55 200.51 367.40 200.59 367.33 200.62 Z"/>
<path fill="#68b92e" opacity="1.00" d=" M 365.51 201.63 C 365.85 201.43 366.54 201.04 366.89 200.85 C 366.54 201.04 365.85 201.43 365.51 201.63 Z"/>
<path fill="#68b92e" opacity="1.00" d=" M 370.96 204.02 C 371.26 203.71 371.86 203.10 372.17 202.80 L 373.04 203.00 C 372.52 203.25 371.48 203.76 370.96 204.02 Z"/>
<path fill="#68b92e" opacity="1.00" d=" M 354.93 207.00 C 355.52 205.71 356.95 205.35 358.24 205.23 C 357.93 206.73 356.43 208.08 354.93 207.00 Z"/>
<path fill="#68b92e" opacity="1.00" d=" M 367.30 205.62 C 367.40 205.57 367.60 205.48 367.70 205.44 C 367.60 205.48 367.40 205.57 367.30 205.62 Z"/>
<path fill="#68b92e" opacity="1.00" d=" M 361.92 207.99 C 362.24 207.68 362.87 207.07 363.19 206.77 L 364.06 206.97 C 363.53 207.22 362.46 207.73 361.92 207.99 Z"/>
<path fill="#68b92e" opacity="1.00" d=" M 360.35 208.68 C 360.43 208.64 360.59 208.57 360.67 208.54 C 360.59 208.57 360.43 208.64 360.35 208.68 Z"/>
<path fill="#68b92e" opacity="1.00" d=" M 358.39 209.56 C 358.46 209.53 358.59 209.47 358.66 209.44 C 358.59 209.47 358.46 209.53 358.39 209.56 Z"/>
<path fill="#68b92e" opacity="1.00" d=" M 341.08 214.12 C 341.41 213.93 342.08 213.55 342.42 213.37 C 342.08 213.55 341.41 213.93 341.08 214.12 Z"/>
<path fill="#68b92e" opacity="1.00" d=" M 340.30 214.59 C 340.39 214.54 340.58 214.43 340.67 214.37 C 340.58 214.43 340.39 214.54 340.30 214.59 Z"/>
<path fill="#68b92e" opacity="1.00" d=" M 347.20 214.71 C 347.36 214.64 347.67 214.49 347.82 214.42 C 347.67 214.49 347.36 214.64 347.20 214.71 Z"/>
<path fill="#68b92e" opacity="1.00" d=" M 338.41 215.50 C 338.78 215.34 339.51 215.01 339.88 214.84 C 339.51 215.01 338.78 215.34 338.41 215.50 Z"/>
<path fill="#68b92e" opacity="1.00" d=" M 336.35 216.59 C 336.43 216.54 336.59 216.46 336.66 216.42 C 336.59 216.46 336.43 216.54 336.35 216.59 Z"/>
<path fill="#68b92e" opacity="1.00" d=" M 334.47 217.60 C 334.54 217.56 334.67 217.49 334.74 217.45 C 334.67 217.49 334.54 217.56 334.47 217.60 Z"/>
<path fill="#68b92e" opacity="1.00" d=" M 336.39 219.71 C 336.46 219.68 336.60 219.61 336.67 219.58 C 336.60 219.61 336.46 219.68 336.39 219.71 Z"/>
<path fill="#68b92e" opacity="1.00" d=" M 334.42 220.65 C 334.49 220.61 334.65 220.54 334.73 220.50 C 334.65 220.54 334.49 220.61 334.42 220.65 Z"/>
<path fill="#68b92e" opacity="1.00" d=" M 332.37 221.63 C 332.46 221.59 332.64 221.51 332.73 221.46 C 332.64 221.51 332.46 221.59 332.37 221.63 Z"/>
<path fill="#68b92e" opacity="1.00" d=" M 330.40 222.60 C 330.46 222.56 330.60 222.50 330.67 222.46 C 330.60 222.50 330.46 222.56 330.40 222.60 Z"/>
<path fill="#68b92e" opacity="1.00" d=" M 323.19 223.64 C 323.35 223.56 323.66 223.39 323.82 223.31 C 323.66 223.39 323.35 223.56 323.19 223.64 Z"/>
<path fill="#68b92e" opacity="1.00" d=" M 289.03 242.94 C 295.62 238.92 302.29 234.98 309.14 231.38 C 308.67 231.85 307.74 232.77 307.28 233.23 L 308.84 233.16 C 302.34 236.61 295.85 240.17 289.03 242.94 Z"/>
<path fill="#68b92e" opacity="1.00" d=" M 675.58 414.96 C 678.25 401.99 690.58 391.45 703.97 391.71 C 761.62 391.71 819.26 391.70 876.91 391.72 C 882.95 391.50 889.29 394.18 892.44 399.51 C 895.30 404.12 895.46 409.90 894.11 415.03 C 870.41 516.67 846.77 618.33 823.07 719.97 C 820.29 732.71 808.17 743.05 794.98 742.89 C 726.64 742.91 658.30 742.89 589.96 742.90 C 584.10 742.98 578.00 742.35 572.43 744.58 C 563.55 747.98 556.29 755.73 554.03 765.04 C 543.39 810.53 532.87 856.05 522.20 901.54 C 519.72 911.98 517.40 922.46 514.83 932.89 C 506.41 970.02 497.58 1007.08 489.02 1044.19 C 486.97 1057.70 474.89 1069.35 460.99 1069.47 C 403.02 1069.53 345.05 1069.49 287.08 1069.49 C 281.97 1069.58 276.63 1067.80 273.25 1063.83 C 269.19 1059.28 268.37 1052.63 269.85 1046.88 C 278.80 1008.51 287.67 970.13 296.69 931.78 C 300.26 916.60 303.67 901.39 307.36 886.24 C 318.34 838.07 329.74 790.00 340.88 741.87 C 343.45 728.93 355.54 718.27 368.89 718.32 C 439.92 718.28 510.96 718.32 581.99 718.30 C 592.35 718.50 602.13 712.15 607.19 703.29 C 609.50 699.38 610.39 694.87 611.40 690.50 C 632.80 598.66 654.18 506.81 675.58 414.96 Z"/>
</g>
</svg>